<?xml version="1.0" encoding="UTF-8"?><!DOCTYPE svg PUBLIC "-//W3C//DTD SVG 1.1//EN" "http://www.w3.org/Graphics/SVG/1.1/DTD/svg11.dtd"><svg viewBox="0 0 110 110" xmlns="http://www.w3.org/2000/svg" xmlns:xlink="http://www.w3.org/1999/xlink"><style>:root>svg{display:none}:root>svg:target{display:block}</style><svg fill="#dbb20a" viewBox="0 0 24 24" id="gender-icon" xmlns="http://www.w3.org/2000/svg"><path d="M9 9c1.29 0 2.5.41 3.47 1.11L17.58 5H13V3h8v8h-2V6.41l-5.11 5.09c.7 1 1.11 2.2 1.11 3.5a6 6 0 01-6 6 6 6 0 01-6-6 6 6 0 016-6m0 2a4 4 0 00-4 4 4 4 0 004 4 4 4 0 004-4 4 4 0 00-4-4z"/><defs><filter id="amyfilter" x="0" y="0" width="200%" height="200%"><feOffset result="offOut" in="SourceAlpha" dx="2" dy="2"/><feGaussianBlur result="blurOut" in="offOut" stdDeviation="3"/><feBlend in="SourceGraphic" in2="blurOut"/></filter></defs></svg><svg viewBox="0 0 512 512" id="icon" xmlns="http://www.w3.org/2000/svg"><path fill="#3AB37C" d="M424.3 180c-1-1.2-1.5-2.8-1.5-4.3-14.8-26.1-15.7-58-30.5-84.1-41.7 23.4-70.2 65.1-97.4 103.1-16.4 22.9-31.1 46.4-44.6 71.1-13.6 24.8-26.8 49.9-42 73.8-2.2 3.4-7.9 5-10.3.7-7.2-13.3-15.3-26.2-24.6-38.2-8-10.3-17.1-19.5-25.3-29.6-12.7-15.7-26.3-34.5-43.9-45.4-6.4 21-13.9 41.8-17.2 63.6 24.6 15.9 43.4 38.9 61.5 61.6 21.2 26.6 43.1 52 66.9 76.3 15.4-20.1 26-43.5 38.8-65.3 15.1-25.7 32.7-49.4 51.4-72.6 18.7-23.2 40.3-43.7 62-63.9 10.2-9.5 22.2-17.3 33.1-26 8.2-6.6 16.2-13.4 23.7-20.7 0 .1 0 0-.1-.1z"/><path d="M436.2 170.3h-2.8c-16.3-27.7-16.2-62.6-34-89.9-1.9-3-5.4-3.1-8.3-1.6-45.6 23.1-76.2 67.7-105.2 108.1-16.6 23.2-31.6 47-45.4 72-12.3 22.3-24.1 44.8-37.4 66.6-6-10.4-12.6-20.4-19.9-29.9-8.2-10.8-17.8-20.3-26.3-30.8-15.2-18.7-31.4-40.9-53.7-51.5-3.7-1.8-7.4.5-8.5 4.2-6.8 23.7-15.8 47-19.5 71.4v.4c-2 2.7-2.2 7.1 1.6 9.4 26.5 15.6 46 40.8 64.9 64.6 22 27.7 45.2 54.1 70.2 79.1 2.3 2.3 6.4 1.8 8.4-.5 17.2-20.6 28.7-45 41.8-68.2 14.7-25.9 32-50.3 51.1-73.2 19.2-22.9 40-43.7 61.9-64 10.4-9.7 22.6-17.7 33.8-26.6 9-7.2 17.7-14.7 25.9-22.8 2.3-.5 4.2-2.1 4.6-4.7.6-.6 1.2-1.3 1.8-1.9 3.8-4.4 0-10.2-5-10.2zM400.7 201c-10.9 8.7-22.8 16.5-33.1 26-21.8 20.2-43.4 40.7-62 63.9-18.7 23.2-36.3 46.8-51.4 72.6-12.8 21.8-23.4 45.2-38.8 65.3-23.8-24.2-45.8-49.7-66.9-76.3-18.1-22.7-37-45.8-61.5-61.6 3.3-21.8 10.8-42.6 17.2-63.6 17.7 10.9 31.2 29.7 43.9 45.4 8.2 10.1 17.3 19.3 25.3 29.6 9.3 12 17.4 24.9 24.6 38.2 2.4 4.4 8.1 2.7 10.3-.7 15.3-23.9 28.4-49 42-73.8 13.5-24.7 28.2-48.2 44.6-71.1 27.2-38 55.8-79.8 97.4-103.1 14.8 26.1 15.7 58 30.5 84.1 0 1.5.5 3.1 1.5 4.3 0 .1.1.2.1.2-7.5 7.2-15.5 14-23.7 20.6z"/></svg><svg viewBox="0 0 110 110" id="icon6" xmlns="http://www.w3.org/2000/svg"><path d="M110 22.773V3.223A3.223 3.223 0 00106.777 0C94.815 0 82.578 3.456 72.056 9.77a3.18 3.18 0 00-.24-.103A48.173 48.173 0 0055 6.66a48.335 48.335 0 00-17.085 3.096C27.403 3.456 15.151 0 3.223 0A3.223 3.223 0 000 3.223v19.55c0 6.792 3.305 13.401 8.857 17.753A48.48 48.48 0 006.66 55c0 12.52 4.888 24.725 13.446 33.666 2.17 9.053 10.05 14.889 18.78 14.889 1.03 0 2.046-.084 3.043-.24C44.93 107.49 49.74 110 55 110s10.071-2.51 13.07-6.685c.998.156 2.014.24 3.043.24 8.803 0 16.595-5.882 18.775-14.883C98.45 79.73 103.34 67.523 103.34 55c0-3.539-.381-7.03-1.132-10.44C108.365 39.725 110 28.22 110 22.774zm-103.555 0V6.538c8.315.474 16.702 2.765 24.313 6.621-8.171 4.752-15.106 12.027-19.4 20.998-3.107-3.066-4.913-7.187-4.913-11.384zM55 103.555a9.624 9.624 0 01-6.533-2.537A19.256 19.256 0 0055 94.894a19.259 19.259 0 006.533 6.124A9.624 9.624 0 0155 103.555zm-3.018-30.35A3.228 3.228 0 0155 71.114c1.38 0 2.56.871 3.018 2.093L55 76.224l-3.018-3.018zm31.643 13.96c-1.486 6.158-6.766 9.944-12.512 9.944-7.9 0-13.971-6.996-12.733-15.15l5.344-5.344a3.223 3.223 0 00.944-2.28c0-5.33-4.337-9.667-9.668-9.667-5.33 0-9.668 4.337-9.668 9.668 0 .855.34 1.674.944 2.279l5.344 5.344c1.242 8.178-4.857 15.15-12.733 15.15-7.217 0-12.89-5.83-12.89-13.105 0-3.443 1.34-6.68 3.774-9.115a3.222 3.222 0 10-4.557-4.558 19.227 19.227 0 00-4.912 8.322A42.666 42.666 0 0113.105 55c0-13.437 6.36-25.415 16.227-33.087L83.854 85.98a3.23 3.23 0 00-.23 1.187zm12.61-24.75L82.746 46.473a3.223 3.223 0 00-4.92 4.163l16.34 19.312a42.281 42.281 0 01-6.125 11.007l-53.29-62.62a41.595 41.595 0 0112.009-4.414l31.066 36.715a3.223 3.223 0 004.92-4.163L54.518 13.112a41.69 41.69 0 0114.406 2.362l25.602 25.602A41.769 41.769 0 0196.894 55a42.25 42.25 0 01-.659 7.415zm3.728-24.937a3.21 3.21 0 00-.372-.453L76.948 14.383c8.201-4.6 17.433-7.324 26.607-7.845v16.236c0 4.907-1.336 11.14-3.593 14.705z"/><path d="M35.664 45.332c-5.33 0-9.668 4.337-9.668 9.668 0 5.33 4.337 9.668 9.668 9.668 5.331 0 9.668-4.337 9.668-9.668 0-5.33-4.337-9.668-9.668-9.668zm0 12.89A3.226 3.226 0 0132.441 55a3.226 3.226 0 013.223-3.223A3.226 3.226 0 0138.887 55a3.226 3.226 0 01-3.223 3.223z"/></svg></svg>